<svg xmlns="http://www.w3.org/2000/svg" width="800" height="600" viewBox="0 0 800 600">
<rect width="800" height="600" fill="#0f0f17"/>
<line x1="652.915" y1="307.302" x2="653.489" y2="189.866" stroke="#3a506b" stroke-width="0.6" opacity="0.5"/>
<line x1="19.029" y1="153.879" x2="118.446" y2="36.917" stroke="#3a506b" stroke-width="0.6" opacity="0.5"/>
<line x1="19.029" y1="153.879" x2="210.518" y2="218.196" stroke="#3a506b" stroke-width="0.6" opacity="0.5"/>
<line x1="0.000" y1="326.401" x2="19.029" y2="153.879" stroke="#3a506b" stroke-width="0.6" opacity="0.5"/>
<line x1="652.915" y1="307.302" x2="545.399" y2="499.688" stroke="#3a506b" stroke-width="0.6" opacity="0.5"/>
<line x1="545.399" y1="499.688" x2="687.303" y2="476.661" stroke="#3a506b" stroke-width="0.6" opacity="0.5"/>
<line x1="767.640" y1="394.498" x2="687.303" y2="476.661" stroke="#3a506b" stroke-width="0.6" opacity="0.5"/>
<line x1="767.640" y1="394.498" x2="652.915" y2="307.302" stroke="#3a506b" stroke-width="0.6" opacity="0.5"/>
<line x1="687.303" y1="476.661" x2="336.141" y2="600.000" stroke="#3a506b" stroke-width="0.6" opacity="0.5"/>
<line x1="118.446" y1="36.917" x2="55.738" y2="115.368" stroke="#3a506b" stroke-width="0.6" opacity="0.5"/>
<line x1="55.738" y1="115.368" x2="210.518" y2="218.196" stroke="#3a506b" stroke-width="0.6" opacity="0.5"/>
<line x1="429.803" y1="87.616" x2="359.881" y2="38.034" stroke="#3a506b" stroke-width="0.6" opacity="0.5"/>
<line x1="159.930" y1="326.427" x2="303.147" y2="367.606" stroke="#3a506b" stroke-width="0.6" opacity="0.5"/>
<line x1="210.518" y1="218.196" x2="303.147" y2="367.606" stroke="#3a506b" stroke-width="0.6" opacity="0.5"/>
<line x1="133.113" y1="600.000" x2="303.147" y2="367.606" stroke="#3a506b" stroke-width="0.6" opacity="0.5"/>
<line x1="329.828" y1="136.391" x2="210.518" y2="218.196" stroke="#3a506b" stroke-width="0.6" opacity="0.5"/>
<line x1="469.237" y1="210.488" x2="329.828" y2="136.391" stroke="#3a506b" stroke-width="0.6" opacity="0.5"/>
<line x1="303.147" y1="367.606" x2="483.457" y2="342.376" stroke="#3a506b" stroke-width="0.6" opacity="0.5"/>
<line x1="133.113" y1="600.000" x2="0.000" y2="326.401" stroke="#3a506b" stroke-width="0.6" opacity="0.5"/>
<line x1="469.237" y1="210.488" x2="653.489" y2="189.866" stroke="#3a506b" stroke-width="0.6" opacity="0.5"/>
<line x1="329.828" y1="136.391" x2="242.043" y2="150.380" stroke="#3a506b" stroke-width="0.6" opacity="0.5"/>
<line x1="336.141" y1="600.000" x2="545.399" y2="499.688" stroke="#3a506b" stroke-width="0.6" opacity="0.5"/>
<line x1="336.141" y1="600.000" x2="133.113" y2="600.000" stroke="#3a506b" stroke-width="0.6" opacity="0.5"/>
<line x1="0.000" y1="600.000" x2="0.000" y2="326.401" stroke="#3a506b" stroke-width="0.6" opacity="0.5"/>
<line x1="55.738" y1="115.368" x2="19.029" y2="153.879" stroke="#3a506b" stroke-width="0.6" opacity="0.5"/>
<line x1="517.181" y1="38.865" x2="429.803" y2="87.616" stroke="#3a506b" stroke-width="0.6" opacity="0.5"/>
<line x1="242.043" y1="150.380" x2="359.881" y2="38.034" stroke="#3a506b" stroke-width="0.6" opacity="0.5"/>
<line x1="303.147" y1="367.606" x2="469.237" y2="210.488" stroke="#3a506b" stroke-width="0.6" opacity="0.5"/>
<line x1="541.720" y1="102.972" x2="429.803" y2="87.616" stroke="#3a506b" stroke-width="0.6" opacity="0.5"/>
<line x1="118.446" y1="36.917" x2="359.881" y2="38.034" stroke="#3a506b" stroke-width="0.6" opacity="0.5"/>
<line x1="359.881" y1="38.034" x2="517.181" y2="38.865" stroke="#3a506b" stroke-width="0.6" opacity="0.5"/>
<line x1="517.181" y1="38.865" x2="653.489" y2="189.866" stroke="#3a506b" stroke-width="0.6" opacity="0.5"/>
<line x1="653.489" y1="189.866" x2="767.640" y2="394.498" stroke="#3a506b" stroke-width="0.6" opacity="0.5"/>
<line x1="429.803" y1="87.616" x2="329.828" y2="136.391" stroke="#3a506b" stroke-width="0.6" opacity="0.5"/>
<line x1="133.113" y1="600.000" x2="159.930" y2="326.427" stroke="#3a506b" stroke-width="0.6" opacity="0.5"/>
<line x1="159.930" y1="326.427" x2="19.029" y2="153.879" stroke="#3a506b" stroke-width="0.6" opacity="0.5"/>
<line x1="210.518" y1="218.196" x2="242.043" y2="150.380" stroke="#3a506b" stroke-width="0.6" opacity="0.5"/>
<line x1="652.915" y1="307.302" x2="687.303" y2="476.661" stroke="#3a506b" stroke-width="0.6" opacity="0.5"/>
<line x1="545.399" y1="499.688" x2="303.147" y2="367.606" stroke="#3a506b" stroke-width="0.6" opacity="0.5"/>
<line x1="483.457" y1="342.376" x2="652.915" y2="307.302" stroke="#3a506b" stroke-width="0.6" opacity="0.5"/>
<line x1="133.113" y1="600.000" x2="0.000" y2="600.000" stroke="#3a506b" stroke-width="0.6" opacity="0.5"/>
<line x1="242.043" y1="150.380" x2="118.446" y2="36.917" stroke="#3a506b" stroke-width="0.6" opacity="0.5"/>
<line x1="469.237" y1="210.488" x2="541.720" y2="102.972" stroke="#3a506b" stroke-width="0.6" opacity="0.5"/>
<line x1="242.043" y1="150.380" x2="55.738" y2="115.368" stroke="#3a506b" stroke-width="0.6" opacity="0.5"/>
<line x1="429.803" y1="87.616" x2="469.237" y2="210.488" stroke="#3a506b" stroke-width="0.6" opacity="0.5"/>
<line x1="210.518" y1="218.196" x2="159.930" y2="326.427" stroke="#3a506b" stroke-width="0.6" opacity="0.5"/>
<line x1="483.457" y1="342.376" x2="545.399" y2="499.688" stroke="#3a506b" stroke-width="0.6" opacity="0.5"/>
<line x1="359.881" y1="38.034" x2="329.828" y2="136.391" stroke="#3a506b" stroke-width="0.6" opacity="0.5"/>
<line x1="469.237" y1="210.488" x2="483.457" y2="342.376" stroke="#3a506b" stroke-width="0.6" opacity="0.5"/>
<line x1="159.930" y1="326.427" x2="0.000" y2="326.401" stroke="#3a506b" stroke-width="0.6" opacity="0.5"/>
<line x1="336.141" y1="600.000" x2="303.147" y2="367.606" stroke="#3a506b" stroke-width="0.6" opacity="0.5"/>
<line x1="329.828" y1="136.391" x2="303.147" y2="367.606" stroke="#3a506b" stroke-width="0.6" opacity="0.5"/>
<line x1="517.181" y1="38.865" x2="541.720" y2="102.972" stroke="#3a506b" stroke-width="0.6" opacity="0.5"/>
<line x1="653.489" y1="189.866" x2="541.720" y2="102.972" stroke="#3a506b" stroke-width="0.6" opacity="0.5"/>
<line x1="652.915" y1="307.302" x2="469.237" y2="210.488" stroke="#3a506b" stroke-width="0.6" opacity="0.5"/>
<line x1="438.729" y1="0.934" x2="371.726" y2="95.423" stroke="#e0a458" stroke-width="1.0"/>
<line x1="438.729" y1="0.934" x2="435.562" y2="600.000" stroke="#e0a458" stroke-width="1.0"/>
<line x1="438.729" y1="0.934" x2="486.869" y2="87.218" stroke="#e0a458" stroke-width="1.0"/>
<line x1="273.510" y1="65.413" x2="239.201" y2="29.427" stroke="#e0a458" stroke-width="1.0"/>
<line x1="273.510" y1="65.413" x2="371.726" y2="95.423" stroke="#e0a458" stroke-width="1.0"/>
<line x1="273.510" y1="65.413" x2="297.748" y2="217.511" stroke="#e0a458" stroke-width="1.0"/>
<line x1="371.726" y1="95.423" x2="404.880" y2="163.378" stroke="#e0a458" stroke-width="1.0"/>
<line x1="721.330" y1="1135.113" x2="602.955" y2="405.617" stroke="#e0a458" stroke-width="1.0"/>
<line x1="721.330" y1="1135.113" x2="322.645" y2="0.000" stroke="#e0a458" stroke-width="1.0"/>
<line x1="721.330" y1="1135.113" x2="403.411" y2="471.910" stroke="#e0a458" stroke-width="1.0"/>
<line x1="239.201" y1="29.427" x2="150.089" y2="126.498" stroke="#e0a458" stroke-width="1.0"/>
<line x1="239.201" y1="29.427" x2="236.562" y2="600.000" stroke="#e0a458" stroke-width="1.0"/>
<line x1="408.385" y1="462.787" x2="582.544" y2="394.211" stroke="#e0a458" stroke-width="1.0"/>
<line x1="408.385" y1="462.787" x2="403.411" y2="471.910" stroke="#e0a458" stroke-width="1.0"/>
<line x1="408.385" y1="462.787" x2="383.707" y2="286.420" stroke="#e0a458" stroke-width="1.0"/>
<line x1="403.411" y1="471.910" x2="234.627" y2="495.873" stroke="#e0a458" stroke-width="1.0"/>
<line x1="234.627" y1="495.873" x2="234.627" y2="600.000" stroke="#e0a458" stroke-width="1.0"/>
<line x1="234.627" y1="495.873" x2="196.714" y2="468.133" stroke="#e0a458" stroke-width="1.0"/>
<line x1="196.714" y1="468.133" x2="79.943" y2="456.687" stroke="#e0a458" stroke-width="1.0"/>
<line x1="196.714" y1="468.133" x2="244.987" y2="300.245" stroke="#e0a458" stroke-width="1.0"/>
<line x1="582.544" y1="394.211" x2="556.380" y2="267.803" stroke="#e0a458" stroke-width="1.0"/>
<line x1="582.544" y1="394.211" x2="602.955" y2="405.617" stroke="#e0a458" stroke-width="1.0"/>
<line x1="602.955" y1="405.617" x2="680.686" y2="389.834" stroke="#e0a458" stroke-width="1.0"/>
<line x1="787.544" y1="249.240" x2="158.758" y2="600.000" stroke="#e0a458" stroke-width="1.0"/>
<line x1="787.544" y1="249.240" x2="680.686" y2="389.834" stroke="#e0a458" stroke-width="1.0"/>
<line x1="787.544" y1="249.240" x2="566.733" y2="248.161" stroke="#e0a458" stroke-width="1.0"/>
<line x1="680.686" y1="389.834" x2="800.000" y2="506.495" stroke="#e0a458" stroke-width="1.0"/>
<line x1="486.869" y1="87.218" x2="710.046" y2="1.790" stroke="#e0a458" stroke-width="1.0"/>
<line x1="486.869" y1="87.218" x2="479.715" y2="139.361" stroke="#e0a458" stroke-width="1.0"/>
<line x1="710.046" y1="1.790" x2="47.352" y2="600.000" stroke="#e0a458" stroke-width="1.0"/>
<line x1="710.046" y1="1.790" x2="560.664" y2="193.934" stroke="#e0a458" stroke-width="1.0"/>
<line x1="99.287" y1="232.144" x2="79.978" y2="247.912" stroke="#e0a458" stroke-width="1.0"/>
<line x1="99.287" y1="232.144" x2="109.086" y2="202.971" stroke="#e0a458" stroke-width="1.0"/>
<line x1="99.287" y1="232.144" x2="244.987" y2="300.245" stroke="#e0a458" stroke-width="1.0"/>
<line x1="244.987" y1="300.245" x2="321.816" y2="252.614" stroke="#e0a458" stroke-width="1.0"/>
<line x1="297.748" y1="217.511" x2="321.816" y2="252.614" stroke="#e0a458" stroke-width="1.0"/>
<line x1="297.748" y1="217.511" x2="146.222" y2="147.072" stroke="#e0a458" stroke-width="1.0"/>
<line x1="321.816" y1="252.614" x2="355.391" y2="256.488" stroke="#e0a458" stroke-width="1.0"/>
<line x1="-600.920" y1="-473.812" x2="662.386" y2="600.000" stroke="#e0a458" stroke-width="1.0"/>
<line x1="-600.920" y1="-473.812" x2="150.089" y2="126.498" stroke="#e0a458" stroke-width="1.0"/>
<line x1="-600.920" y1="-473.812" x2="109.086" y2="202.971" stroke="#e0a458" stroke-width="1.0"/>
<line x1="109.086" y1="202.971" x2="146.222" y2="147.072" stroke="#e0a458" stroke-width="1.0"/>
<line x1="150.089" y1="126.498" x2="146.222" y2="147.072" stroke="#e0a458" stroke-width="1.0"/>
<line x1="79.978" y1="247.912" x2="79.943" y2="456.687" stroke="#e0a458" stroke-width="1.0"/>
<line x1="79.978" y1="247.912" x2="0.000" y2="239.090" stroke="#e0a458" stroke-width="1.0"/>
<line x1="79.943" y1="456.687" x2="66.557" y2="463.200" stroke="#e0a458" stroke-width="1.0"/>
<line x1="66.557" y1="463.200" x2="66.557" y2="600.000" stroke="#e0a458" stroke-width="1.0"/>
<line x1="66.557" y1="463.200" x2="0.000" y2="463.200" stroke="#e0a458" stroke-width="1.0"/>
<line x1="404.880" y1="163.378" x2="479.715" y2="139.361" stroke="#e0a458" stroke-width="1.0"/>
<line x1="404.880" y1="163.378" x2="355.391" y2="256.488" stroke="#e0a458" stroke-width="1.0"/>
<line x1="383.707" y1="286.420" x2="355.391" y2="256.488" stroke="#e0a458" stroke-width="1.0"/>
<line x1="383.707" y1="286.420" x2="556.380" y2="267.803" stroke="#e0a458" stroke-width="1.0"/>
<line x1="566.733" y1="248.161" x2="556.380" y2="267.803" stroke="#e0a458" stroke-width="1.0"/>
<line x1="566.733" y1="248.161" x2="560.664" y2="193.934" stroke="#e0a458" stroke-width="1.0"/>
<line x1="560.664" y1="193.934" x2="479.715" y2="139.361" stroke="#e0a458" stroke-width="1.0"/>
<polygon points="0.000,326.401 19.029,153.879 118.446,36.917 359.881,38.034 517.181,38.865 653.489,189.866 767.640,394.498 687.303,476.661 336.141,600.000 0.000,600.000" fill="none" stroke="#9bf6ff" stroke-width="1.5"/>
<circle cx="429.803" cy="87.616" r="3.0" fill="#5bc0be"/>
<circle cx="242.043" cy="150.380" r="3.0" fill="#5bc0be"/>
<circle cx="545.399" cy="499.688" r="3.0" fill="#5bc0be"/>
<circle cx="653.489" cy="189.866" r="3.0" fill="#5bc0be"/>
<circle cx="359.881" cy="38.034" r="3.0" fill="#5bc0be"/>
<circle cx="159.930" cy="326.427" r="3.0" fill="#5bc0be"/>
<circle cx="19.029" cy="153.879" r="3.0" fill="#5bc0be"/>
<circle cx="483.457" cy="342.376" r="3.0" fill="#5bc0be"/>
<circle cx="0.000" cy="600.000" r="3.0" fill="#5bc0be"/>
<circle cx="517.181" cy="38.865" r="3.0" fill="#5bc0be"/>
<circle cx="687.303" cy="476.661" r="3.0" fill="#5bc0be"/>
<circle cx="329.828" cy="136.391" r="3.0" fill="#5bc0be"/>
<circle cx="336.141" cy="600.000" r="3.0" fill="#5bc0be"/>
<circle cx="118.446" cy="36.917" r="3.0" fill="#5bc0be"/>
<circle cx="767.640" cy="394.498" r="3.0" fill="#5bc0be"/>
<circle cx="336.141" cy="600.000" r="3.0" fill="#5bc0be"/>
<circle cx="133.113" cy="600.000" r="3.0" fill="#5bc0be"/>
<circle cx="303.147" cy="367.606" r="3.0" fill="#5bc0be"/>
<circle cx="652.915" cy="307.302" r="3.0" fill="#5bc0be"/>
<circle cx="336.141" cy="600.000" r="3.0" fill="#5bc0be"/>
<circle cx="541.720" cy="102.972" r="3.0" fill="#5bc0be"/>
<circle cx="210.518" cy="218.196" r="3.0" fill="#5bc0be"/>
<circle cx="55.738" cy="115.368" r="3.0" fill="#5bc0be"/>
<circle cx="0.000" cy="326.401" r="3.0" fill="#5bc0be"/>
<circle cx="469.237" cy="210.488" r="3.0" fill="#5bc0be"/>
</svg>