<svg xmlns="http://www.w3.org/2000/svg" width="800" height="600" viewBox="0 0 800 600">
<rect width="800" height="600" fill="#0f0f17"/>
<line x1="800.000" y1="526.153" x2="800.000" y2="600.000" stroke="#3a506b" stroke-width="0.6" opacity="0.5"/>
<line x1="286.256" y1="41.526" x2="237.053" y2="3.027" stroke="#3a506b" stroke-width="0.6" opacity="0.5"/>
<line x1="689.900" y1="169.754" x2="582.335" y2="276.519" stroke="#3a506b" stroke-width="0.6" opacity="0.5"/>
<line x1="73.987" y1="375.545" x2="0.000" y2="482.609" stroke="#3a506b" stroke-width="0.6" opacity="0.5"/>
<line x1="689.900" y1="169.754" x2="575.985" y2="141.845" stroke="#3a506b" stroke-width="0.6" opacity="0.5"/>
<line x1="800.000" y1="600.000" x2="364.947" y2="600.000" stroke="#3a506b" stroke-width="0.6" opacity="0.5"/>
<line x1="298.320" y1="294.844" x2="182.695" y2="371.448" stroke="#3a506b" stroke-width="0.6" opacity="0.5"/>
<line x1="654.285" y1="0.000" x2="575.985" y2="141.845" stroke="#3a506b" stroke-width="0.6" opacity="0.5"/>
<line x1="532.147" y1="569.904" x2="800.000" y2="526.153" stroke="#3a506b" stroke-width="0.6" opacity="0.5"/>
<line x1="384.329" y1="189.400" x2="277.033" y2="163.108" stroke="#3a506b" stroke-width="0.6" opacity="0.5"/>
<line x1="432.722" y1="324.990" x2="384.329" y2="189.400" stroke="#3a506b" stroke-width="0.6" opacity="0.5"/>
<line x1="174.879" y1="580.881" x2="0.000" y2="482.609" stroke="#3a506b" stroke-width="0.6" opacity="0.5"/>
<line x1="298.320" y1="294.844" x2="277.033" y2="163.108" stroke="#3a506b" stroke-width="0.6" opacity="0.5"/>
<line x1="582.335" y1="276.519" x2="490.838" y2="226.504" stroke="#3a506b" stroke-width="0.6" opacity="0.5"/>
<line x1="149.544" y1="122.521" x2="3.051" y2="163.204" stroke="#3a506b" stroke-width="0.6" opacity="0.5"/>
<line x1="418.038" y1="440.009" x2="274.387" y2="435.859" stroke="#3a506b" stroke-width="0.6" opacity="0.5"/>
<line x1="660.173" y1="357.624" x2="772.746" y2="363.338" stroke="#3a506b" stroke-width="0.6" opacity="0.5"/>
<line x1="582.335" y1="276.519" x2="660.173" y2="357.624" stroke="#3a506b" stroke-width="0.6" opacity="0.5"/>
<line x1="286.256" y1="41.526" x2="149.544" y2="122.521" stroke="#3a506b" stroke-width="0.6" opacity="0.5"/>
<line x1="286.256" y1="41.526" x2="456.059" y2="113.462" stroke="#3a506b" stroke-width="0.6" opacity="0.5"/>
<line x1="575.985" y1="141.845" x2="582.335" y2="276.519" stroke="#3a506b" stroke-width="0.6" opacity="0.5"/>
<line x1="285.459" y1="588.996" x2="364.947" y2="600.000" stroke="#3a506b" stroke-width="0.6" opacity="0.5"/>
<line x1="277.033" y1="163.108" x2="163.733" y2="247.619" stroke="#3a506b" stroke-width="0.6" opacity="0.5"/>
<line x1="182.695" y1="371.448" x2="274.387" y2="435.859" stroke="#3a506b" stroke-width="0.6" opacity="0.5"/>
<line x1="456.059" y1="113.462" x2="454.480" y2="0.000" stroke="#3a506b" stroke-width="0.6" opacity="0.5"/>
<line x1="800.000" y1="144.133" x2="800.000" y2="526.153" stroke="#3a506b" stroke-width="0.6" opacity="0.5"/>
<line x1="384.329" y1="189.400" x2="286.256" y2="41.526" stroke="#3a506b" stroke-width="0.6" opacity="0.5"/>
<line x1="456.059" y1="113.462" x2="575.985" y2="141.845" stroke="#3a506b" stroke-width="0.6" opacity="0.5"/>
<line x1="432.722" y1="324.990" x2="298.320" y2="294.844" stroke="#3a506b" stroke-width="0.6" opacity="0.5"/>
<line x1="575.985" y1="141.845" x2="490.838" y2="226.504" stroke="#3a506b" stroke-width="0.6" opacity="0.5"/>
<line x1="689.900" y1="169.754" x2="660.173" y2="357.624" stroke="#3a506b" stroke-width="0.6" opacity="0.5"/>
<line x1="708.523" y1="0.000" x2="689.900" y2="169.754" stroke="#3a506b" stroke-width="0.6" opacity="0.5"/>
<line x1="592.931" y1="0.000" x2="575.985" y2="141.845" stroke="#3a506b" stroke-width="0.6" opacity="0.5"/>
<line x1="689.900" y1="169.754" x2="654.285" y2="0.000" stroke="#3a506b" stroke-width="0.6" opacity="0.5"/>
<line x1="163.733" y1="247.619" x2="182.695" y2="371.448" stroke="#3a506b" stroke-width="0.6" opacity="0.5"/>
<line x1="418.038" y1="440.009" x2="557.954" y2="425.025" stroke="#3a506b" stroke-width="0.6" opacity="0.5"/>
<line x1="557.954" y1="425.025" x2="432.722" y2="324.990" stroke="#3a506b" stroke-width="0.6" opacity="0.5"/>
<line x1="0.000" y1="600.000" x2="285.459" y2="588.996" stroke="#3a506b" stroke-width="0.6" opacity="0.5"/>
<line x1="73.987" y1="375.545" x2="174.879" y2="580.881" stroke="#3a506b" stroke-width="0.6" opacity="0.5"/>
<line x1="432.722" y1="324.990" x2="418.038" y2="440.009" stroke="#3a506b" stroke-width="0.6" opacity="0.5"/>
<line x1="800.000" y1="144.133" x2="689.900" y2="169.754" stroke="#3a506b" stroke-width="0.6" opacity="0.5"/>
<line x1="800.000" y1="526.153" x2="772.746" y2="363.338" stroke="#3a506b" stroke-width="0.6" opacity="0.5"/>
<line x1="274.387" y1="435.859" x2="174.879" y2="580.881" stroke="#3a506b" stroke-width="0.6" opacity="0.5"/>
<line x1="454.480" y1="0.000" x2="592.931" y2="0.000" stroke="#3a506b" stroke-width="0.6" opacity="0.5"/>
<line x1="298.320" y1="294.844" x2="274.387" y2="435.859" stroke="#3a506b" stroke-width="0.6" opacity="0.5"/>
<line x1="800.000" y1="526.153" x2="660.173" y2="357.624" stroke="#3a506b" stroke-width="0.6" opacity="0.5"/>
<line x1="359.036" y1="0.000" x2="456.059" y2="113.462" stroke="#3a506b" stroke-width="0.6" opacity="0.5"/>
<line x1="163.733" y1="247.619" x2="73.987" y2="375.545" stroke="#3a506b" stroke-width="0.6" opacity="0.5"/>
<line x1="149.544" y1="122.521" x2="237.053" y2="3.027" stroke="#3a506b" stroke-width="0.6" opacity="0.5"/>
<line x1="456.059" y1="113.462" x2="384.329" y2="189.400" stroke="#3a506b" stroke-width="0.6" opacity="0.5"/>
<line x1="0.000" y1="276.024" x2="73.987" y2="375.545" stroke="#3a506b" stroke-width="0.6" opacity="0.5"/>
<line x1="0.000" y1="276.024" x2="3.051" y2="163.204" stroke="#3a506b" stroke-width="0.6" opacity="0.5"/>
<line x1="364.947" y1="600.000" x2="418.038" y2="440.009" stroke="#3a506b" stroke-width="0.6" opacity="0.5"/>
<line x1="237.053" y1="3.027" x2="359.036" y2="0.000" stroke="#3a506b" stroke-width="0.6" opacity="0.5"/>
<line x1="3.051" y1="163.204" x2="237.053" y2="3.027" stroke="#3a506b" stroke-width="0.6" opacity="0.5"/>
<line x1="772.746" y1="363.338" x2="689.900" y2="169.754" stroke="#3a506b" stroke-width="0.6" opacity="0.5"/>
<line x1="490.838" y1="226.504" x2="384.329" y2="189.400" stroke="#3a506b" stroke-width="0.6" opacity="0.5"/>
<line x1="359.036" y1="0.000" x2="454.480" y2="0.000" stroke="#3a506b" stroke-width="0.6" opacity="0.5"/>
<line x1="359.036" y1="0.000" x2="286.256" y2="41.526" stroke="#3a506b" stroke-width="0.6" opacity="0.5"/>
<line x1="654.285" y1="0.000" x2="708.523" y2="0.000" stroke="#3a506b" stroke-width="0.6" opacity="0.5"/>
<line x1="772.746" y1="363.338" x2="800.000" y2="144.133" stroke="#3a506b" stroke-width="0.6" opacity="0.5"/>
<line x1="364.947" y1="600.000" x2="0.000" y2="600.000" stroke="#3a506b" stroke-width="0.6" opacity="0.5"/>
<line x1="364.947" y1="600.000" x2="532.147" y2="569.904" stroke="#3a506b" stroke-width="0.6" opacity="0.5"/>
<line x1="163.733" y1="247.619" x2="149.544" y2="122.521" stroke="#3a506b" stroke-width="0.6" opacity="0.5"/>
<line x1="708.523" y1="0.000" x2="800.000" y2="144.133" stroke="#3a506b" stroke-width="0.6" opacity="0.5"/>
<line x1="660.173" y1="357.624" x2="557.954" y2="425.025" stroke="#3a506b" stroke-width="0.6" opacity="0.5"/>
<line x1="557.954" y1="425.025" x2="800.000" y2="526.153" stroke="#3a506b" stroke-width="0.6" opacity="0.5"/>
<line x1="384.329" y1="189.400" x2="298.320" y2="294.844" stroke="#3a506b" stroke-width="0.6" opacity="0.5"/>
<line x1="418.038" y1="440.009" x2="298.320" y2="294.844" stroke="#3a506b" stroke-width="0.6" opacity="0.5"/>
<line x1="163.733" y1="247.619" x2="3.051" y2="163.204" stroke="#3a506b" stroke-width="0.6" opacity="0.5"/>
<line x1="274.387" y1="435.859" x2="285.459" y2="588.996" stroke="#3a506b" stroke-width="0.6" opacity="0.5"/>
<line x1="532.147" y1="569.904" x2="557.954" y2="425.025" stroke="#3a506b" stroke-width="0.6" opacity="0.5"/>
<line x1="73.987" y1="375.545" x2="182.695" y2="371.448" stroke="#3a506b" stroke-width="0.6" opacity="0.5"/>
<line x1="532.147" y1="569.904" x2="800.000" y2="600.000" stroke="#3a506b" stroke-width="0.6" opacity="0.5"/>
<line x1="582.335" y1="276.519" x2="432.722" y2="324.990" stroke="#3a506b" stroke-width="0.6" opacity="0.5"/>
<line x1="274.387" y1="435.859" x2="364.947" y2="600.000" stroke="#3a506b" stroke-width="0.6" opacity="0.5"/>
<line x1="0.000" y1="482.609" x2="0.000" y2="276.024" stroke="#3a506b" stroke-width="0.6" opacity="0.5"/>
<line x1="174.879" y1="580.881" x2="0.000" y2="600.000" stroke="#3a506b" stroke-width="0.6" opacity="0.5"/>
<line x1="456.059" y1="113.462" x2="490.838" y2="226.504" stroke="#3a506b" stroke-width="0.6" opacity="0.5"/>
<line x1="490.838" y1="226.504" x2="432.722" y2="324.990" stroke="#3a506b" stroke-width="0.6" opacity="0.5"/>
<line x1="182.695" y1="371.448" x2="174.879" y2="580.881" stroke="#3a506b" stroke-width="0.6" opacity="0.5"/>
<line x1="174.879" y1="580.881" x2="285.459" y2="588.996" stroke="#3a506b" stroke-width="0.6" opacity="0.5"/>
<line x1="0.000" y1="600.000" x2="0.000" y2="482.609" stroke="#3a506b" stroke-width="0.6" opacity="0.5"/>
<line x1="277.033" y1="163.108" x2="286.256" y2="41.526" stroke="#3a506b" stroke-width="0.6" opacity="0.5"/>
<line x1="277.033" y1="163.108" x2="149.544" y2="122.521" stroke="#3a506b" stroke-width="0.6" opacity="0.5"/>
<line x1="592.931" y1="0.000" x2="654.285" y2="0.000" stroke="#3a506b" stroke-width="0.6" opacity="0.5"/>
<line x1="592.931" y1="0.000" x2="456.059" y2="113.462" stroke="#3a506b" stroke-width="0.6" opacity="0.5"/>
<line x1="298.320" y1="294.844" x2="163.733" y2="247.619" stroke="#3a506b" stroke-width="0.6" opacity="0.5"/>
<line x1="557.954" y1="425.025" x2="582.335" y2="276.519" stroke="#3a506b" stroke-width="0.6" opacity="0.5"/>
<line x1="0.000" y1="276.024" x2="163.733" y2="247.619" stroke="#3a506b" stroke-width="0.6" opacity="0.5"/>
<line x1="418.038" y1="440.009" x2="532.147" y2="569.904" stroke="#3a506b" stroke-width="0.6" opacity="0.5"/>
<line x1="297.425" y1="-23.441" x2="364.279" y2="93.730" stroke="#e0a458" stroke-width="1.0"/>
<line x1="297.425" y1="-23.441" x2="216.610" y2="79.846" stroke="#e0a458" stroke-width="1.0"/>
<line x1="297.425" y1="-23.441" x2="312.897" y2="600.000" stroke="#e0a458" stroke-width="1.0"/>
<line x1="216.610" y1="79.846" x2="227.489" y2="98.209" stroke="#e0a458" stroke-width="1.0"/>
<line x1="216.610" y1="79.846" x2="18.507" y2="-65.231" stroke="#e0a458" stroke-width="1.0"/>
<line x1="362.802" y1="97.219" x2="347.573" y2="107.318" stroke="#e0a458" stroke-width="1.0"/>
<line x1="362.802" y1="97.219" x2="364.279" y2="93.730" stroke="#e0a458" stroke-width="1.0"/>
<line x1="362.802" y1="97.219" x2="448.093" y2="177.784" stroke="#e0a458" stroke-width="1.0"/>
<line x1="364.279" y1="93.730" x2="406.758" y2="57.406" stroke="#e0a458" stroke-width="1.0"/>
<line x1="448.093" y1="177.784" x2="422.119" y2="252.343" stroke="#e0a458" stroke-width="1.0"/>
<line x1="448.093" y1="177.784" x2="508.561" y2="159.181" stroke="#e0a458" stroke-width="1.0"/>
<line x1="523.706" y1="55.778" x2="530.961" y2="64.531" stroke="#e0a458" stroke-width="1.0"/>
<line x1="523.706" y1="55.778" x2="406.758" y2="57.406" stroke="#e0a458" stroke-width="1.0"/>
<line x1="523.706" y1="55.778" x2="523.706" y2="0.000" stroke="#e0a458" stroke-width="1.0"/>
<line x1="406.758" y1="57.406" x2="406.758" y2="0.000" stroke="#e0a458" stroke-width="1.0"/>
<line x1="-35.014" y1="379.317" x2="86.569" y2="288.928" stroke="#e0a458" stroke-width="1.0"/>
<line x1="-35.014" y1="379.317" x2="114.885" y2="482.904" stroke="#e0a458" stroke-width="1.0"/>
<line x1="-35.014" y1="379.317" x2="800.000" y2="379.317" stroke="#e0a458" stroke-width="1.0"/>
<line x1="114.885" y1="482.904" x2="132.144" y2="474.424" stroke="#e0a458" stroke-width="1.0"/>
<line x1="114.885" y1="482.904" x2="82.068" y2="541.305" stroke="#e0a458" stroke-width="1.0"/>
<line x1="82.068" y1="541.305" x2="172.602" y2="1369.425" stroke="#e0a458" stroke-width="1.0"/>
<line x1="82.068" y1="541.305" x2="0.000" y2="541.305" stroke="#e0a458" stroke-width="1.0"/>
<line x1="347.573" y1="107.318" x2="319.002" y2="223.914" stroke="#e0a458" stroke-width="1.0"/>
<line x1="347.573" y1="107.318" x2="227.489" y2="98.209" stroke="#e0a458" stroke-width="1.0"/>
<line x1="227.489" y1="98.209" x2="201.455" y2="179.987" stroke="#e0a458" stroke-width="1.0"/>
<line x1="319.002" y1="223.914" x2="374.633" y2="269.292" stroke="#e0a458" stroke-width="1.0"/>
<line x1="319.002" y1="223.914" x2="243.340" y2="236.140" stroke="#e0a458" stroke-width="1.0"/>
<line x1="132.144" y1="474.424" x2="126.202" y2="316.733" stroke="#e0a458" stroke-width="1.0"/>
<line x1="132.144" y1="474.424" x2="177.634" y2="476.122" stroke="#e0a458" stroke-width="1.0"/>
<line x1="582.474" y1="1328.997" x2="582.474" y2="0.000" stroke="#e0a458" stroke-width="1.0"/>
<line x1="582.474" y1="1328.997" x2="439.738" y2="536.014" stroke="#e0a458" stroke-width="1.0"/>
<line x1="582.474" y1="1328.997" x2="668.531" y2="563.076" stroke="#e0a458" stroke-width="1.0"/>
<line x1="508.561" y1="159.181" x2="530.961" y2="64.531" stroke="#e0a458" stroke-width="1.0"/>
<line x1="508.561" y1="159.181" x2="559.211" y2="210.123" stroke="#e0a458" stroke-width="1.0"/>
<line x1="530.961" y1="64.531" x2="623.608" y2="75.600" stroke="#e0a458" stroke-width="1.0"/>
<line x1="559.211" y1="210.123" x2="508.325" y2="303.213" stroke="#e0a458" stroke-width="1.0"/>
<line x1="559.211" y1="210.123" x2="620.340" y2="207.240" stroke="#e0a458" stroke-width="1.0"/>
<line x1="623.608" y1="75.600" x2="623.608" y2="0.000" stroke="#e0a458" stroke-width="1.0"/>
<line x1="623.608" y1="75.600" x2="649.138" y2="89.693" stroke="#e0a458" stroke-width="1.0"/>
<line x1="182.474" y1="1625.515" x2="182.474" y2="0.000" stroke="#e0a458" stroke-width="1.0"/>
<line x1="182.474" y1="1625.515" x2="172.602" y2="1369.425" stroke="#e0a458" stroke-width="1.0"/>
<line x1="182.474" y1="1625.515" x2="337.137" y2="508.291" stroke="#e0a458" stroke-width="1.0"/>
<line x1="172.602" y1="1369.425" x2="235.253" y2="515.657" stroke="#e0a458" stroke-width="1.0"/>
<line x1="86.569" y1="288.928" x2="74.888" y2="221.598" stroke="#e0a458" stroke-width="1.0"/>
<line x1="86.569" y1="288.928" x2="126.202" y2="316.733" stroke="#e0a458" stroke-width="1.0"/>
<line x1="126.202" y1="316.733" x2="220.106" y2="302.353" stroke="#e0a458" stroke-width="1.0"/>
<line x1="201.455" y1="179.987" x2="243.340" y2="236.140" stroke="#e0a458" stroke-width="1.0"/>
<line x1="201.455" y1="179.987" x2="90.114" y2="192.615" stroke="#e0a458" stroke-width="1.0"/>
<line x1="243.340" y1="236.140" x2="220.106" y2="302.353" stroke="#e0a458" stroke-width="1.0"/>
<line x1="220.106" y1="302.353" x2="258.739" y2="360.665" stroke="#e0a458" stroke-width="1.0"/>
<line x1="583.803" y1="353.014" x2="676.617" y2="263.939" stroke="#e0a458" stroke-width="1.0"/>
<line x1="583.803" y1="353.014" x2="673.410" y2="488.912" stroke="#e0a458" stroke-width="1.0"/>
<line x1="583.803" y1="353.014" x2="521.126" y2="342.724" stroke="#e0a458" stroke-width="1.0"/>
<line x1="422.119" y1="252.343" x2="508.325" y2="303.213" stroke="#e0a458" stroke-width="1.0"/>
<line x1="422.119" y1="252.343" x2="374.633" y2="269.292" stroke="#e0a458" stroke-width="1.0"/>
<line x1="374.633" y1="269.292" x2="351.360" y2="373.050" stroke="#e0a458" stroke-width="1.0"/>
<line x1="508.325" y1="303.213" x2="521.126" y2="342.724" stroke="#e0a458" stroke-width="1.0"/>
<line x1="521.126" y1="342.724" x2="483.433" y2="389.911" stroke="#e0a458" stroke-width="1.0"/>
<line x1="1441.132" y1="335.143" x2="766.912" y2="251.316" stroke="#e0a458" stroke-width="1.0"/>
<line x1="1441.132" y1="335.143" x2="0.000" y2="335.143" stroke="#e0a458" stroke-width="1.0"/>
<line x1="1441.132" y1="335.143" x2="711.547" y2="457.271" stroke="#e0a458" stroke-width="1.0"/>
<line x1="711.547" y1="457.271" x2="721.003" y2="270.963" stroke="#e0a458" stroke-width="1.0"/>
<line x1="711.547" y1="457.271" x2="673.410" y2="488.912" stroke="#e0a458" stroke-width="1.0"/>
<line x1="668.531" y1="563.076" x2="661.193" y2="518.153" stroke="#e0a458" stroke-width="1.0"/>
<line x1="668.531" y1="563.076" x2="800.000" y2="563.076" stroke="#e0a458" stroke-width="1.0"/>
<line x1="661.193" y1="518.153" x2="493.977" y2="488.367" stroke="#e0a458" stroke-width="1.0"/>
<line x1="661.193" y1="518.153" x2="673.410" y2="488.912" stroke="#e0a458" stroke-width="1.0"/>
<line x1="439.738" y1="536.014" x2="344.294" y2="504.342" stroke="#e0a458" stroke-width="1.0"/>
<line x1="439.738" y1="536.014" x2="493.977" y2="488.367" stroke="#e0a458" stroke-width="1.0"/>
<line x1="493.977" y1="488.367" x2="483.433" y2="389.911" stroke="#e0a458" stroke-width="1.0"/>
<line x1="351.360" y1="373.050" x2="483.433" y2="389.911" stroke="#e0a458" stroke-width="1.0"/>
<line x1="351.360" y1="373.050" x2="348.007" y2="375.815" stroke="#e0a458" stroke-width="1.0"/>
<line x1="681.404" y1="82.924" x2="681.404" y2="0.000" stroke="#e0a458" stroke-width="1.0"/>
<line x1="681.404" y1="82.924" x2="728.938" y2="88.138" stroke="#e0a458" stroke-width="1.0"/>
<line x1="681.404" y1="82.924" x2="649.138" y2="89.693" stroke="#e0a458" stroke-width="1.0"/>
<line x1="649.138" y1="89.693" x2="620.340" y2="207.240" stroke="#e0a458" stroke-width="1.0"/>
<line x1="620.340" y1="207.240" x2="676.617" y2="263.939" stroke="#e0a458" stroke-width="1.0"/>
<line x1="728.938" y1="88.138" x2="800.000" y2="43.037" stroke="#e0a458" stroke-width="1.0"/>
<line x1="728.938" y1="88.138" x2="766.912" y2="251.316" stroke="#e0a458" stroke-width="1.0"/>
<line x1="676.617" y1="263.939" x2="721.003" y2="270.963" stroke="#e0a458" stroke-width="1.0"/>
<line x1="766.912" y1="251.316" x2="721.003" y2="270.963" stroke="#e0a458" stroke-width="1.0"/>
<line x1="177.634" y1="476.122" x2="258.739" y2="360.665" stroke="#e0a458" stroke-width="1.0"/>
<line x1="177.634" y1="476.122" x2="235.253" y2="515.657" stroke="#e0a458" stroke-width="1.0"/>
<line x1="235.253" y1="515.657" x2="337.137" y2="508.291" stroke="#e0a458" stroke-width="1.0"/>
<line x1="258.739" y1="360.665" x2="348.007" y2="375.815" stroke="#e0a458" stroke-width="1.0"/>
<line x1="348.007" y1="375.815" x2="344.294" y2="504.342" stroke="#e0a458" stroke-width="1.0"/>
<line x1="337.137" y1="508.291" x2="344.294" y2="504.342" stroke="#e0a458" stroke-width="1.0"/>
<line x1="18.507" y1="-65.231" x2="90.114" y2="192.615" stroke="#e0a458" stroke-width="1.0"/>
<line x1="18.507" y1="-65.231" x2="473.865" y2="600.000" stroke="#e0a458" stroke-width="1.0"/>
<line x1="90.114" y1="192.615" x2="74.888" y2="221.598" stroke="#e0a458" stroke-width="1.0"/>
<line x1="74.888" y1="221.598" x2="0.000" y2="219.573" stroke="#e0a458" stroke-width="1.0"/>
<polygon points="0.000,276.024 3.051,163.204 237.053,3.027 359.036,0.000 708.523,0.000 800.000,144.133 800.000,600.000 0.000,600.000" fill="none" stroke="#9bf6ff" stroke-width="1.5"/>
<circle cx="286.256" cy="41.526" r="3.0" fill="#5bc0be"/>
<circle cx="654.285" cy="0.000" r="3.0" fill="#5bc0be"/>
<circle cx="384.329" cy="189.400" r="3.0" fill="#5bc0be"/>
<circle cx="73.987" cy="375.545" r="3.0" fill="#5bc0be"/>
<circle cx="0.000" cy="276.024" r="3.0" fill="#5bc0be"/>
<circle cx="359.036" cy="0.000" r="3.0" fill="#5bc0be"/>
<circle cx="364.947" cy="600.000" r="3.0" fill="#5bc0be"/>
<circle cx="149.544" cy="122.521" r="3.0" fill="#5bc0be"/>
<circle cx="800.000" cy="600.000" r="3.0" fill="#5bc0be"/>
<circle cx="490.838" cy="226.504" r="3.0" fill="#5bc0be"/>
<circle cx="592.931" cy="0.000" r="3.0" fill="#5bc0be"/>
<circle cx="708.523" cy="0.000" r="3.0" fill="#5bc0be"/>
<circle cx="237.053" cy="3.027" r="3.0" fill="#5bc0be"/>
<circle cx="174.879" cy="580.881" r="3.0" fill="#5bc0be"/>
<circle cx="0.000" cy="600.000" r="3.0" fill="#5bc0be"/>
<circle cx="456.059" cy="113.462" r="3.0" fill="#5bc0be"/>
<circle cx="454.480" cy="0.000" r="3.0" fill="#5bc0be"/>
<circle cx="0.000" cy="482.609" r="3.0" fill="#5bc0be"/>
<circle cx="582.335" cy="276.519" r="3.0" fill="#5bc0be"/>
<circle cx="298.320" cy="294.844" r="3.0" fill="#5bc0be"/>
<circle cx="277.033" cy="163.108" r="3.0" fill="#5bc0be"/>
<circle cx="800.000" cy="600.000" r="3.0" fill="#5bc0be"/>
<circle cx="182.695" cy="371.448" r="3.0" fill="#5bc0be"/>
<circle cx="532.147" cy="569.904" r="3.0" fill="#5bc0be"/>
<circle cx="575.985" cy="141.845" r="3.0" fill="#5bc0be"/>
<circle cx="800.000" cy="144.133" r="3.0" fill="#5bc0be"/>
<circle cx="285.459" cy="588.996" r="3.0" fill="#5bc0be"/>
<circle cx="163.733" cy="247.619" r="3.0" fill="#5bc0be"/>
<circle cx="0.000" cy="600.000" r="3.0" fill="#5bc0be"/>
<circle cx="660.173" cy="357.624" r="3.0" fill="#5bc0be"/>
<circle cx="772.746" cy="363.338" r="3.0" fill="#5bc0be"/>
<circle cx="557.954" cy="425.025" r="3.0" fill="#5bc0be"/>
<circle cx="432.722" cy="324.990" r="3.0" fill="#5bc0be"/>
<circle cx="800.000" cy="526.153" r="3.0" fill="#5bc0be"/>
<circle cx="418.038" cy="440.009" r="3.0" fill="#5bc0be"/>
<circle cx="174.879" cy="580.881" r="3.0" fill="#5bc0be"/>
<circle cx="174.879" cy="580.881" r="3.0" fill="#5bc0be"/>
<circle cx="689.900" cy="169.754" r="3.0" fill="#5bc0be"/>
<circle cx="274.387" cy="435.859" r="3.0" fill="#5bc0be"/>
<circle cx="3.051" cy="163.204" r="3.0" fill="#5bc0be"/>
</svg>